+ filenameToUse=/home/horvathandras/vatic/vatic/public/videouploads/DJI_0063_30m_regi_disznoturas_homokmegy_20180603_napos_kalaszos_T4.avi
+ filenameNoDot=DJI_0063_30m_regi_disznoturas_homokmegy_20180603_napos_kalaszos_T4
+ FullUploadPath=/home/horvathandras/vatic/vatic/public/videouploads/DJI_0063_30m_regi_disznoturas_homokmegy_20180603_napos_kalaszos_T4.avi
+ VideoDataDir=/home/horvathandras/vatic/vatic/videos
+ AvailableObjectTypes='PozitívROI NegatívROI Túrás ~Friss ~1-2Hetes ~Régebbi ~Egyéb1 ~Egyéb2 ~Egyéb3 Rágás ~Friss ~1-2Hetes ~Régebbi ~Egyéb1 ~Egyéb2 ~Egyéb3 Törés ~Friss ~1-2Hetes ~Régebbi ~Egyéb1 ~Egyéb2 ~Egyéb3 Taposás ~Friss ~1-2Hetes ~Régebbi ~Egyéb1 ~Egyéb2 ~Egyéb3 EgészségesNövény Egyéb1 Egyéb2 Egyéb3 Egyéb4 Egyéb5 Bizonytalan Művelőút Gktaposás Vetőhiba Széldöntés Jégkár Belvíz Aszály Erózió EgyszikűGyom KétszikűGyom EgyébNövvédelmiPR'
++ dirname /home/horvathandras/vatic/vatic/vatic_publisher.sh
+ cd /home/horvathandras/vatic/vatic
+ touch /home/horvathandras/vatic/vatic/public/videouploads/DJI_0063_30m_regi_disznoturas_homokmegy_20180603_napos_kalaszos_T4.avi
+ chmod 744 /home/horvathandras/vatic/vatic/public/videouploads/DJI_0063_30m_regi_disznoturas_homokmegy_20180603_napos_kalaszos_T4.avi
+ mkdir /home/horvathandras/vatic/vatic/videos/DJI_0063_30m_regi_disznoturas_homokmegy_20180603_napos_kalaszos_T4
+ turkic extract /home/horvathandras/vatic/vatic/public/videouploads/DJI_0063_30m_regi_disznoturas_homokmegy_20180603_napos_kalaszos_T4.avi /home/horvathandras/vatic/vatic/videos/DJI_0063_30m_regi_disznoturas_homokmegy_20180603_napos_kalaszos_T4 --no-resize
ffmpeg version 2.8.14-0ubuntu0.16.04.1 Copyright (c) 2000-2018 the FFmpeg developers
  built with gcc 5.4.0 (Ubuntu 5.4.0-6ubuntu1~16.04.9) 20160609
  configuration: --prefix=/usr --extra-version=0ubuntu0.16.04.1 --build-suffix=-ffmpeg --toolchain=hardened --libdir=/usr/lib/x86_64-linux-gnu --incdir=/usr/include/x86_64-linux-gnu --cc=cc --cxx=g++ --enable-gpl --enable-shared --disable-stripping --disable-decoder=libopenjpeg --disable-decoder=libschroedinger --enable-avresample --enable-avisynth --enable-gnutls --enable-ladspa --enable-libass --enable-libbluray --enable-libbs2b --enable-libcaca --enable-libcdio --enable-libflite --enable-libfontconfig --enable-libfreetype --enable-libfribidi --enable-libgme --enable-libgsm --enable-libmodplug --enable-libmp3lame --enable-libopenjpeg --enable-libopus --enable-libpulse --enable-librtmp --enable-libschroedinger --enable-libshine --enable-libsnappy --enable-libsoxr --enable-libspeex --enable-libssh --enable-libtheora --enable-libtwolame --enable-libvorbis --enable-libvpx --enable-libwavpack --enable-libwebp --enable-libx265 --enable-libxvid --enable-libzvbi --enable-openal --enable-opengl --enable-x11grab --enable-libdc1394 --enable-libiec61883 --enable-libzmq --enable-frei0r --enable-libx264 --enable-libopencv
  libavutil      54. 31.100 / 54. 31.100
  libavcodec     56. 60.100 / 56. 60.100
  libavformat    56. 40.101 / 56. 40.101
  libavdevice    56.  4.100 / 56.  4.100
  libavfilter     5. 40.101 /  5. 40.101
  libavresample   2.  1.  0 /  2.  1.  0
  libswscale      3.  1.101 /  3.  1.101
  libswresample   1.  2.101 /  1.  2.101
  libpostproc    53.  3.100 / 53.  3.100
Input #0, mov,mp4,m4a,3gp,3g2,mj2, from '/home/horvathandras/vatic/vatic/public/videouploads/DJI_0063_30m_regi_disznoturas_homokmegy_20180603_napos_kalaszos_T4.avi':
  Metadata:
    major_brand     : qt  
    minor_version   : 537986816
    compatible_brands: qt  
    creation_time   : 2018-06-03 08:55:45
    location        : +46.517760+19.172388+30.200
    location-{    : +46.517760+19.172388+30.200
    comment         : DE=None, Mode=P, DSW=0001
  Duration: 00:00:25.58, start: 0.000000, bitrate: 100885 kb/s
    Stream #0:0(eng): Video: h264 (High) (avc1 / 0x31637661), yuv420p(tv, bt709), 4096x2160 [SAR 1:1 DAR 256:135], 100729 kb/s, 50 fps, 50 tbr, 50k tbn, 100 tbc (default)
    Metadata:
      creation_time   : 2018-06-03 08:55:45
      handler_name    : DJI.AVC
      encoder         : AVC encoder
    Stream #0:1(eng): Data: none (priv / 0x76697270), 150 kb/s
    Metadata:
      creation_time   : 2018-06-03 08:55:45
      handler_name    : DJI.Meta
Please use -b:a or -b:v, -b is ambiguous
[swscaler @ 0x165e480] deprecated pixel format used, make sure you did set range correctly
Output #0, image2, to '/tmp/pyvision-ffmpeg-811907968/%d.jpg':
  Metadata:
    major_brand     : qt  
    minor_version   : 537986816
    compatible_brands: qt  
    comment         : DE=None, Mode=P, DSW=0001
    location        : +46.517760+19.172388+30.200
    location-{    : +46.517760+19.172388+30.200
    encoder         : Lavf56.40.101
    Stream #0:0(eng): Video: mjpeg, yuvj420p(pc), 4096x2160 [SAR 1:1 DAR 256:135], q=2-31, 10000 kb/s, 50 fps, 50 tbn, 50 tbc (default)
    Metadata:
      creation_time   : 2018-06-03 08:55:45
      handler_name    : DJI.AVC
      encoder         : Lavc56.60.100 mjpeg
Stream mapping:
  Stream #0:0 -> #0:0 (h264 (native) -> mjpeg (native))
Press [q] to stop, [?] for help
frame=    1 fps=1.0 q=17.9 size=N/A time=00:00:00.02 bitrate=N/A    frame=    4 fps=2.4 q=24.7 size=N/A time=00:00:00.08 bitrate=N/A    frame=    7 fps=3.0 q=24.8 size=N/A time=00:00:00.14 bitrate=N/A    frame=   10 fps=3.4 q=24.8 size=N/A time=00:00:00.20 bitrate=N/A    frame=   13 fps=3.8 q=24.8 size=N/A time=00:00:00.26 bitrate=N/A    frame=   15 fps=3.8 q=24.8 size=N/A time=00:00:00.30 bitrate=N/A    frame=   18 fps=4.0 q=24.8 size=N/A time=00:00:00.36 bitrate=N/A    frame=   22 fps=4.2 q=24.8 size=N/A time=00:00:00.44 bitrate=N/A    frame=   25 fps=4.3 q=24.8 size=N/A time=00:00:00.50 bitrate=N/A    frame=   28 fps=4.5 q=24.8 size=N/A time=00:00:00.56 bitrate=N/A    frame=   31 fps=4.5 q=24.8 size=N/A time=00:00:00.62 bitrate=N/A    frame=   34 fps=4.4 q=24.8 size=N/A time=00:00:00.68 bitrate=N/A    frame=   37 fps=4.5 q=24.8 size=N/A time=00:00:00.74 bitrate=N/A    frame=   40 fps=4.5 q=24.8 size=N/A time=00:00:00.80 bitrate=N/A    frame=   42 fps=4.5 q=24.8 size=N/A time=00:00:00.84 bitrate=N/A    frame=   45 fps=4.6 q=24.8 size=N/A time=00:00:00.90 bitrate=N/A    frame=   48 fps=4.6 q=24.8 size=N/A time=00:00:00.96 bitrate=N/A    frame=   51 fps=4.7 q=24.8 size=N/A time=00:00:01.02 bitrate=N/A    frame=   54 fps=4.7 q=24.8 size=N/A time=00:00:01.08 bitrate=N/A    frame=   57 fps=4.8 q=24.8 size=N/A time=00:00:01.14 bitrate=N/A    frame=   60 fps=4.8 q=24.8 size=N/A time=00:00:01.20 bitrate=N/A    frame=   63 fps=4.8 q=24.8 size=N/A time=00:00:01.26 bitrate=N/A    frame=   67 fps=4.9 q=24.8 size=N/A time=00:00:01.34 bitrate=N/A    frame=   71 fps=4.9 q=24.8 size=N/A time=00:00:01.42 bitrate=N/A    frame=   74 fps=4.9 q=24.8 size=N/A time=00:00:01.48 bitrate=N/A    frame=   77 fps=4.9 q=24.8 size=N/A time=00:00:01.54 bitrate=N/A    frame=   80 fps=4.9 q=24.8 size=N/A time=00:00:01.60 bitrate=N/A    frame=   84 fps=5.0 q=24.8 size=N/A time=00:00:01.68 bitrate=N/A    frame=   88 fps=5.0 q=24.8 size=N/A time=00:00:01.76 bitrate=N/A    frame=   91 fps=5.0 q=24.8 size=N/A time=00:00:01.82 bitrate=N/A    frame=   94 fps=5.0 q=24.8 size=N/A time=00:00:01.88 bitrate=N/A    frame=   98 fps=5.0 q=24.8 size=N/A time=00:00:01.96 bitrate=N/A    frame=  101 fps=5.0 q=24.8 size=N/A time=00:00:02.02 bitrate=N/A    frame=  105 fps=5.1 q=24.8 size=N/A time=00:00:02.10 bitrate=N/A    frame=  109 fps=5.1 q=24.8 size=N/A time=00:00:02.18 bitrate=N/A    frame=  112 fps=5.1 q=24.8 size=N/A time=00:00:02.24 bitrate=N/A    frame=  116 fps=5.1 q=24.8 size=N/A time=00:00:02.32 bitrate=N/A    frame=  119 fps=5.1 q=24.8 size=N/A time=00:00:02.38 bitrate=N/A    frame=  122 fps=5.1 q=24.8 size=N/A time=00:00:02.44 bitrate=N/A    frame=  125 fps=5.1 q=24.8 size=N/A time=00:00:02.50 bitrate=N/A    frame=  127 fps=5.1 q=24.8 size=N/A time=00:00:02.54 bitrate=N/A    frame=  129 fps=5.1 q=24.8 size=N/A time=00:00:02.58 bitrate=N/A    frame=  131 fps=5.0 q=24.8 size=N/A time=00:00:02.62 bitrate=N/A    frame=  135 fps=5.1 q=24.8 size=N/A time=00:00:02.70 bitrate=N/A    frame=  138 fps=5.1 q=24.8 size=N/A time=00:00:02.76 bitrate=N/A    frame=  141 fps=5.1 q=24.8 size=N/A time=00:00:02.82 bitrate=N/A    frame=  144 fps=5.1 q=24.8 size=N/A time=00:00:02.88 bitrate=N/A    frame=  148 fps=5.1 q=24.8 size=N/A time=00:00:02.96 bitrate=N/A    frame=  150 fps=5.1 q=24.8 size=N/A time=00:00:03.00 bitrate=N/A    frame=  155 fps=5.1 q=24.8 size=N/A time=00:00:03.10 bitrate=N/A    frame=  159 fps=5.2 q=24.8 size=N/A time=00:00:03.18 bitrate=N/A    frame=  163 fps=5.2 q=24.8 size=N/A time=00:00:03.26 bitrate=N/A    frame=  167 fps=5.2 q=24.8 size=N/A time=00:00:03.34 bitrate=N/A    frame=  171 fps=5.3 q=24.8 size=N/A time=00:00:03.42 bitrate=N/A    frame=  174 fps=5.3 q=24.8 size=N/A time=00:00:03.48 bitrate=N/A    frame=  178 fps=5.3 q=24.8 size=N/A time=00:00:03.56 bitrate=N/A    frame=  181 fps=5.3 q=24.8 size=N/A time=00:00:03.62 bitrate=N/A    frame=  184 fps=5.3 q=24.8 size=N/A time=00:00:03.68 bitrate=N/A    frame=  188 fps=5.3 q=24.8 size=N/A time=00:00:03.76 bitrate=N/A    frame=  192 fps=5.4 q=24.8 size=N/A time=00:00:03.84 bitrate=N/A    frame=  195 fps=5.4 q=24.8 size=N/A time=00:00:03.90 bitrate=N/A    frame=  198 fps=5.4 q=24.8 size=N/A time=00:00:03.96 bitrate=N/A    frame=  201 fps=5.4 q=24.8 size=N/A time=00:00:04.02 bitrate=N/A    frame=  205 fps=5.4 q=24.8 size=N/A time=00:00:04.10 bitrate=N/A    frame=  208 fps=5.3 q=24.8 size=N/A time=00:00:04.16 bitrate=N/A    frame=  212 fps=5.4 q=24.8 size=N/A time=00:00:04.24 bitrate=N/A    frame=  216 fps=5.4 q=24.8 size=N/A time=00:00:04.32 bitrate=N/A    frame=  220 fps=5.4 q=24.8 size=N/A time=00:00:04.40 bitrate=N/A    frame=  223 fps=5.4 q=24.8 size=N/A time=00:00:04.46 bitrate=N/A    frame=  226 fps=5.4 q=24.8 size=N/A time=00:00:04.52 bitrate=N/A    frame=  229 fps=5.4 q=24.8 size=N/A time=00:00:04.58 bitrate=N/A    frame=  233 fps=5.4 q=24.8 size=N/A time=00:00:04.66 bitrate=N/A    frame=  235 fps=5.4 q=24.8 size=N/A time=00:00:04.70 bitrate=N/A    frame=  238 fps=5.4 q=24.8 size=N/A time=00:00:04.76 bitrate=N/A    frame=  241 fps=5.4 q=24.8 size=N/A time=00:00:04.82 bitrate=N/A    frame=  244 fps=5.4 q=24.8 size=N/A time=00:00:04.88 bitrate=N/A    frame=  248 fps=5.4 q=24.8 size=N/A time=00:00:04.96 bitrate=N/A    frame=  251 fps=5.4 q=24.8 size=N/A time=00:00:05.02 bitrate=N/A    frame=  255 fps=5.4 q=24.8 size=N/A time=00:00:05.10 bitrate=N/A    frame=  258 fps=5.4 q=24.8 size=N/A time=00:00:05.16 bitrate=N/A    frame=  261 fps=5.4 q=24.8 size=N/A time=00:00:05.22 bitrate=N/A    frame=  265 fps=5.4 q=24.8 size=N/A time=00:00:05.30 bitrate=N/A    frame=  268 fps=5.4 q=24.8 size=N/A time=00:00:05.36 bitrate=N/A    frame=  271 fps=5.4 q=24.8 size=N/A time=00:00:05.42 bitrate=N/A    frame=  274 fps=5.4 q=24.8 size=N/A time=00:00:05.48 bitrate=N/A    frame=  277 fps=5.4 q=24.8 size=N/A time=00:00:05.54 bitrate=N/A    frame=  280 fps=5.4 q=24.8 size=N/A time=00:00:05.60 bitrate=N/A    frame=  283 fps=5.4 q=24.8 size=N/A time=00:00:05.66 bitrate=N/A    frame=  286 fps=5.4 q=24.8 size=N/A time=00:00:05.72 bitrate=N/A    frame=  289 fps=5.4 q=24.8 size=N/A time=00:00:05.78 bitrate=N/A    frame=  292 fps=5.3 q=24.8 size=N/A time=00:00:05.84 bitrate=N/A    frame=  294 fps=5.3 q=24.8 size=N/A time=00:00:05.88 bitrate=N/A    frame=  298 fps=5.3 q=24.8 size=N/A time=00:00:05.96 bitrate=N/A    frame=  301 fps=5.3 q=24.8 size=N/A time=00:00:06.02 bitrate=N/A    frame=  304 fps=5.3 q=24.8 size=N/A time=00:00:06.08 bitrate=N/A    frame=  307 fps=5.3 q=24.8 size=N/A time=00:00:06.14 bitrate=N/A    frame=  310 fps=5.3 q=24.8 size=N/A time=00:00:06.20 bitrate=N/A    frame=  313 fps=5.3 q=24.8 size=N/A time=00:00:06.26 bitrate=N/A    frame=  317 fps=5.3 q=24.8 size=N/A time=00:00:06.34 bitrate=N/A    frame=  321 fps=5.3 q=24.8 size=N/A time=00:00:06.42 bitrate=N/A    frame=  324 fps=5.3 q=24.8 size=N/A time=00:00:06.48 bitrate=N/A    frame=  328 fps=5.4 q=24.8 size=N/A time=00:00:06.56 bitrate=N/A    frame=  331 fps=5.4 q=24.8 size=N/A time=00:00:06.62 bitrate=N/A    frame=  334 fps=5.4 q=24.8 size=N/A time=00:00:06.68 bitrate=N/A    frame=  337 fps=5.3 q=24.8 size=N/A time=00:00:06.74 bitrate=N/A    frame=  340 fps=5.3 q=24.8 size=N/A time=00:00:06.80 bitrate=N/A    frame=  344 fps=5.3 q=24.8 size=N/A time=00:00:06.88 bitrate=N/A    frame=  347 fps=5.3 q=24.8 size=N/A time=00:00:06.94 bitrate=N/A    frame=  350 fps=5.3 q=24.8 size=N/A time=00:00:07.00 bitrate=N/A    frame=  354 fps=5.3 q=24.8 size=N/A time=00:00:07.08 bitrate=N/A    frame=  358 fps=5.3 q=24.8 size=N/A time=00:00:07.16 bitrate=N/A    frame=  361 fps=5.3 q=24.8 size=N/A time=00:00:07.22 bitrate=N/A    frame=  364 fps=5.3 q=24.8 size=N/A time=00:00:07.28 bitrate=N/A    frame=  367 fps=5.3 q=24.8 size=N/A time=00:00:07.34 bitrate=N/A    frame=  370 fps=5.3 q=24.8 size=N/A time=00:00:07.40 bitrate=N/A    frame=  373 fps=5.3 q=24.8 size=N/A time=00:00:07.46 bitrate=N/A    frame=  376 fps=5.3 q=24.8 size=N/A time=00:00:07.52 bitrate=N/A    frame=  379 fps=5.3 q=24.8 size=N/A time=00:00:07.58 bitrate=N/A    frame=  382 fps=5.3 q=24.8 size=N/A time=00:00:07.64 bitrate=N/A    frame=  385 fps=5.3 q=24.8 size=N/A time=00:00:07.70 bitrate=N/A    frame=  389 fps=5.3 q=24.8 size=N/A time=00:00:07.78 bitrate=N/A    frame=  392 fps=5.3 q=24.8 size=N/A time=00:00:07.84 bitrate=N/A    frame=  396 fps=5.3 q=24.8 size=N/A time=00:00:07.92 bitrate=N/A    frame=  399 fps=5.3 q=24.8 size=N/A time=00:00:07.98 bitrate=N/A    frame=  402 fps=5.3 q=24.8 size=N/A time=00:00:08.04 bitrate=N/A    frame=  405 fps=5.3 q=24.8 size=N/A time=00:00:08.10 bitrate=N/A    frame=  408 fps=5.3 q=24.8 size=N/A time=00:00:08.16 bitrate=N/A    frame=  411 fps=5.3 q=24.8 size=N/A time=00:00:08.22 bitrate=N/A    frame=  414 fps=5.3 q=24.8 size=N/A time=00:00:08.28 bitrate=N/A    frame=  417 fps=5.3 q=24.8 size=N/A time=00:00:08.34 bitrate=N/A    frame=  419 fps=5.3 q=24.8 size=N/A time=00:00:08.38 bitrate=N/A    frame=  421 fps=5.3 q=24.8 size=N/A time=00:00:08.42 bitrate=N/A    frame=  423 fps=5.3 q=24.8 size=N/A time=00:00:08.46 bitrate=N/A    frame=  426 fps=5.3 q=24.8 size=N/A time=00:00:08.52 bitrate=N/A    frame=  430 fps=5.3 q=24.8 size=N/A time=00:00:08.60 bitrate=N/A    frame=  433 fps=5.3 q=24.8 size=N/A time=00:00:08.66 bitrate=N/A    frame=  435 fps=5.3 q=24.8 size=N/A time=00:00:08.70 bitrate=N/A    frame=  438 fps=5.3 q=24.8 size=N/A time=00:00:08.76 bitrate=N/A    frame=  442 fps=5.3 q=24.8 size=N/A time=00:00:08.84 bitrate=N/A    frame=  445 fps=5.3 q=24.8 size=N/A time=00:00:08.90 bitrate=N/A    frame=  448 fps=5.3 q=24.8 size=N/A time=00:00:08.96 bitrate=N/A    frame=  451 fps=5.3 q=24.8 size=N/A time=00:00:09.02 bitrate=N/A    frame=  455 fps=5.3 q=24.8 size=N/A time=00:00:09.10 bitrate=N/A    frame=  459 fps=5.3 q=24.8 size=N/A time=00:00:09.18 bitrate=N/A    frame=  462 fps=5.3 q=24.8 size=N/A time=00:00:09.24 bitrate=N/A    frame=  466 fps=5.3 q=24.8 size=N/A time=00:00:09.32 bitrate=N/A    frame=  469 fps=5.3 q=24.8 size=N/A time=00:00:09.38 bitrate=N/A    frame=  472 fps=5.3 q=24.8 size=N/A time=00:00:09.44 bitrate=N/A    frame=  475 fps=5.3 q=24.8 size=N/A time=00:00:09.50 bitrate=N/A    frame=  478 fps=5.3 q=24.8 size=N/A time=00:00:09.56 bitrate=N/A    frame=  481 fps=5.3 q=24.8 size=N/A time=00:00:09.62 bitrate=N/A    frame=  485 fps=5.3 q=24.8 size=N/A time=00:00:09.70 bitrate=N/A    frame=  488 fps=5.3 q=24.8 size=N/A time=00:00:09.76 bitrate=N/A    frame=  491 fps=5.3 q=24.8 size=N/A time=00:00:09.82 bitrate=N/A    frame=  495 fps=5.3 q=24.8 size=N/A time=00:00:09.90 bitrate=N/A    frame=  499 fps=5.3 q=24.8 size=N/A time=00:00:09.98 bitrate=N/A    frame=  502 fps=5.3 q=24.8 size=N/A time=00:00:10.04 bitrate=N/A    frame=  506 fps=5.3 q=24.8 size=N/A time=00:00:10.12 bitrate=N/A    frame=  508 fps=5.3 q=24.8 size=N/A time=00:00:10.16 bitrate=N/A    frame=  512 fps=5.3 q=24.8 size=N/A time=00:00:10.24 bitrate=N/A    frame=  515 fps=5.3 q=24.8 size=N/A time=00:00:10.30 bitrate=N/A    frame=  517 fps=5.3 q=24.8 size=N/A time=00:00:10.34 bitrate=N/A    frame=  519 fps=5.3 q=24.8 size=N/A time=00:00:10.38 bitrate=N/A    frame=  522 fps=5.3 q=24.8 size=N/A time=00:00:10.44 bitrate=N/A    frame=  525 fps=5.3 q=24.8 size=N/A time=00:00:10.50 bitrate=N/A    frame=  529 fps=5.3 q=24.8 size=N/A time=00:00:10.58 bitrate=N/A    frame=  532 fps=5.3 q=24.8 size=N/A time=00:00:10.64 bitrate=N/A    frame=  535 fps=5.3 q=24.8 size=N/A time=00:00:10.70 bitrate=N/A    frame=  538 fps=5.3 q=24.8 size=N/A time=00:00:10.76 bitrate=N/A    frame=  541 fps=5.3 q=24.8 size=N/A time=00:00:10.82 bitrate=N/A    frame=  545 fps=5.3 q=24.8 size=N/A time=00:00:10.90 bitrate=N/A    frame=  548 fps=5.3 q=24.8 size=N/A time=00:00:10.96 bitrate=N/A    frame=  551 fps=5.3 q=24.8 size=N/A time=00:00:11.02 bitrate=N/A    frame=  554 fps=5.3 q=24.8 size=N/A time=00:00:11.08 bitrate=N/A    frame=  557 fps=5.2 q=24.8 size=N/A time=00:00:11.14 bitrate=N/A    frame=  560 fps=5.2 q=24.8 size=N/A time=00:00:11.20 bitrate=N/A    frame=  564 fps=5.3 q=24.8 size=N/A time=00:00:11.28 bitrate=N/A    frame=  568 fps=5.3 q=24.8 size=N/A time=00:00:11.36 bitrate=N/A    frame=  572 fps=5.3 q=24.8 size=N/A time=00:00:11.44 bitrate=N/A    frame=  576 fps=5.3 q=24.8 size=N/A time=00:00:11.52 bitrate=N/A    frame=  579 fps=5.3 q=24.8 size=N/A time=00:00:11.58 bitrate=N/A    frame=  582 fps=5.3 q=24.8 size=N/A time=00:00:11.64 bitrate=N/A    frame=  585 fps=5.3 q=24.8 size=N/A time=00:00:11.70 bitrate=N/A    frame=  589 fps=5.3 q=24.8 size=N/A time=00:00:11.78 bitrate=N/A    frame=  593 fps=5.3 q=24.8 size=N/A time=00:00:11.86 bitrate=N/A    frame=  596 fps=5.3 q=24.8 size=N/A time=00:00:11.92 bitrate=N/A    frame=  599 fps=5.3 q=24.8 size=N/A time=00:00:11.98 bitrate=N/A    frame=  603 fps=5.3 q=24.8 size=N/A time=00:00:12.06 bitrate=N/A    frame=  607 fps=5.3 q=24.8 size=N/A time=00:00:12.14 bitrate=N/A    frame=  611 fps=5.3 q=24.8 size=N/A time=00:00:12.22 bitrate=N/A    frame=  615 fps=5.3 q=24.8 size=N/A time=00:00:12.30 bitrate=N/A    frame=  618 fps=5.3 q=24.8 size=N/A time=00:00:12.36 bitrate=N/A    frame=  621 fps=5.3 q=24.8 size=N/A time=00:00:12.42 bitrate=N/A    frame=  624 fps=5.3 q=24.8 size=N/A time=00:00:12.48 bitrate=N/A    frame=  627 fps=5.3 q=24.8 size=N/A time=00:00:12.54 bitrate=N/A    frame=  630 fps=5.3 q=24.8 size=N/A time=00:00:12.60 bitrate=N/A    frame=  634 fps=5.3 q=24.8 size=N/A time=00:00:12.68 bitrate=N/A    frame=  636 fps=5.3 q=24.8 size=N/A time=00:00:12.72 bitrate=N/A    frame=  640 fps=5.3 q=24.8 size=N/A time=00:00:12.80 bitrate=N/A    frame=  643 fps=5.3 q=24.8 size=N/A time=00:00:12.86 bitrate=N/A    frame=  646 fps=5.3 q=24.8 size=N/A time=00:00:12.92 bitrate=N/A    frame=  649 fps=5.3 q=24.8 size=N/A time=00:00:12.98 bitrate=N/A    frame=  652 fps=5.3 q=24.8 size=N/A time=00:00:13.04 bitrate=N/A    frame=  655 fps=5.3 q=24.8 size=N/A time=00:00:13.10 bitrate=N/A    frame=  658 fps=5.3 q=24.8 size=N/A time=00:00:13.16 bitrate=N/A    frame=  661 fps=5.3 q=24.8 size=N/A time=00:00:13.22 bitrate=N/A    frame=  664 fps=5.3 q=24.8 size=N/A time=00:00:13.28 bitrate=N/A    frame=  668 fps=5.3 q=24.8 size=N/A time=00:00:13.36 bitrate=N/A    frame=  671 fps=5.3 q=24.8 size=N/A time=00:00:13.42 bitrate=N/A    frame=  674 fps=5.3 q=24.8 size=N/A time=00:00:13.48 bitrate=N/A    frame=  678 fps=5.3 q=24.8 size=N/A time=00:00:13.56 bitrate=N/A    frame=  682 fps=5.3 q=24.8 size=N/A time=00:00:13.64 bitrate=N/A    frame=  686 fps=5.3 q=24.8 size=N/A time=00:00:13.72 bitrate=N/A    frame=  689 fps=5.3 q=24.8 size=N/A time=00:00:13.78 bitrate=N/A    frame=  692 fps=5.3 q=24.8 size=N/A time=00:00:13.84 bitrate=N/A    frame=  695 fps=5.3 q=24.8 size=N/A time=00:00:13.90 bitrate=N/A    frame=  699 fps=5.3 q=24.8 size=N/A time=00:00:13.98 bitrate=N/A    frame=  702 fps=5.3 q=24.8 size=N/A time=00:00:14.04 bitrate=N/A    frame=  705 fps=5.3 q=24.8 size=N/A time=00:00:14.10 bitrate=N/A    frame=  708 fps=5.3 q=24.8 size=N/A time=00:00:14.16 bitrate=N/A    frame=  711 fps=5.3 q=24.8 size=N/A time=00:00:14.22 bitrate=N/A    frame=  714 fps=5.3 q=24.8 size=N/A time=00:00:14.28 bitrate=N/A    frame=  717 fps=5.3 q=24.8 size=N/A time=00:00:14.34 bitrate=N/A    frame=  720 fps=5.3 q=24.8 size=N/A time=00:00:14.40 bitrate=N/A    frame=  724 fps=5.3 q=24.8 size=N/A time=00:00:14.48 bitrate=N/A    frame=  728 fps=5.3 q=24.8 size=N/A time=00:00:14.56 bitrate=N/A    frame=  732 fps=5.3 q=24.8 size=N/A time=00:00:14.64 bitrate=N/A    frame=  736 fps=5.3 q=24.8 size=N/A time=00:00:14.72 bitrate=N/A    frame=  738 fps=5.3 q=24.8 size=N/A time=00:00:14.76 bitrate=N/A    frame=  741 fps=5.3 q=24.8 size=N/A time=00:00:14.82 bitrate=N/A    frame=  744 fps=5.3 q=24.8 size=N/A time=00:00:14.88 bitrate=N/A    frame=  746 fps=5.3 q=24.8 size=N/A time=00:00:14.92 bitrate=N/A    frame=  748 fps=5.3 q=24.8 size=N/A time=00:00:14.96 bitrate=N/A    frame=  751 fps=5.3 q=24.8 size=N/A time=00:00:15.02 bitrate=N/A    frame=  755 fps=5.3 q=24.8 size=N/A time=00:00:15.10 bitrate=N/A    frame=  758 fps=5.3 q=24.8 size=N/A time=00:00:15.16 bitrate=N/A    frame=  762 fps=5.3 q=24.8 size=N/A time=00:00:15.24 bitrate=N/A    frame=  765 fps=5.3 q=24.8 size=N/A time=00:00:15.30 bitrate=N/A    frame=  768 fps=5.3 q=24.8 size=N/A time=00:00:15.36 bitrate=N/A    frame=  771 fps=5.3 q=24.8 size=N/A time=00:00:15.42 bitrate=N/A    frame=  775 fps=5.3 q=24.8 size=N/A time=00:00:15.50 bitrate=N/A    frame=  778 fps=5.3 q=24.8 size=N/A time=00:00:15.56 bitrate=N/A    frame=  781 fps=5.3 q=24.8 size=N/A time=00:00:15.62 bitrate=N/A    frame=  783 fps=5.3 q=24.8 size=N/A time=00:00:15.66 bitrate=N/A    frame=  786 fps=5.3 q=24.8 size=N/A time=00:00:15.72 bitrate=N/A    frame=  789 fps=5.3 q=24.8 size=N/A time=00:00:15.78 bitrate=N/A    frame=  791 fps=5.3 q=24.8 size=N/A time=00:00:15.82 bitrate=N/A    frame=  794 fps=5.3 q=24.8 size=N/A time=00:00:15.88 bitrate=N/A    frame=  798 fps=5.3 q=24.8 size=N/A time=00:00:15.96 bitrate=N/A    frame=  801 fps=5.3 q=24.8 size=N/A time=00:00:16.02 bitrate=N/A    frame=  805 fps=5.3 q=24.8 size=N/A time=00:00:16.10 bitrate=N/A    frame=  808 fps=5.3 q=24.8 size=N/A time=00:00:16.16 bitrate=N/A    frame=  810 fps=5.3 q=24.8 size=N/A time=00:00:16.20 bitrate=N/A    frame=  813 fps=5.3 q=24.8 size=N/A time=00:00:16.26 bitrate=N/A    frame=  816 fps=5.3 q=24.8 size=N/A time=00:00:16.32 bitrate=N/A    frame=  819 fps=5.3 q=24.8 size=N/A time=00:00:16.38 bitrate=N/A    frame=  822 fps=5.3 q=24.8 size=N/A time=00:00:16.44 bitrate=N/A    frame=  825 fps=5.3 q=24.8 size=N/A time=00:00:16.50 bitrate=N/A    frame=  829 fps=5.3 q=24.8 size=N/A time=00:00:16.58 bitrate=N/A    frame=  833 fps=5.3 q=24.8 size=N/A time=00:00:16.66 bitrate=N/A    frame=  836 fps=5.3 q=24.8 size=N/A time=00:00:16.72 bitrate=N/A    frame=  838 fps=5.3 q=24.8 size=N/A time=00:00:16.76 bitrate=N/A    frame=  841 fps=5.3 q=24.8 size=N/A time=00:00:16.82 bitrate=N/A    frame=  844 fps=5.3 q=24.8 size=N/A time=00:00:16.88 bitrate=N/A    frame=  847 fps=5.3 q=24.8 size=N/A time=00:00:16.94 bitrate=N/A    frame=  850 fps=5.3 q=24.8 size=N/A time=00:00:17.00 bitrate=N/A    frame=  853 fps=5.3 q=24.8 size=N/A time=00:00:17.06 bitrate=N/A    frame=  857 fps=5.3 q=24.8 size=N/A time=00:00:17.14 bitrate=N/A    frame=  860 fps=5.3 q=24.8 size=N/A time=00:00:17.20 bitrate=N/A    frame=  863 fps=5.3 q=24.8 size=N/A time=00:00:17.26 bitrate=N/A    frame=  865 fps=5.3 q=24.8 size=N/A time=00:00:17.30 bitrate=N/A    frame=  867 fps=5.3 q=24.8 size=N/A time=00:00:17.34 bitrate=N/A    frame=  869 fps=5.3 q=24.8 size=N/A time=00:00:17.38 bitrate=N/A    frame=  872 fps=5.3 q=24.8 size=N/A time=00:00:17.44 bitrate=N/A    frame=  876 fps=5.3 q=24.8 size=N/A time=00:00:17.52 bitrate=N/A    frame=  879 fps=5.3 q=24.8 size=N/A time=00:00:17.58 bitrate=N/A    frame=  881 fps=5.3 q=24.8 size=N/A time=00:00:17.62 bitrate=N/A    frame=  883 fps=5.3 q=24.8 size=N/A time=00:00:17.66 bitrate=N/A    frame=  886 fps=5.3 q=24.8 size=N/A time=00:00:17.72 bitrate=N/A    frame=  889 fps=5.2 q=24.8 size=N/A time=00:00:17.78 bitrate=N/A    frame=  892 fps=5.2 q=24.8 size=N/A time=00:00:17.84 bitrate=N/A    frame=  894 fps=5.2 q=24.8 size=N/A time=00:00:17.88 bitrate=N/A    frame=  897 fps=5.2 q=24.8 size=N/A time=00:00:17.94 bitrate=N/A    frame=  900 fps=5.2 q=24.8 size=N/A time=00:00:18.00 bitrate=N/A    frame=  903 fps=5.2 q=24.8 size=N/A time=00:00:18.06 bitrate=N/A    frame=  906 fps=5.2 q=24.8 size=N/A time=00:00:18.12 bitrate=N/A    frame=  909 fps=5.2 q=24.8 size=N/A time=00:00:18.18 bitrate=N/A    frame=  911 fps=5.2 q=24.8 size=N/A time=00:00:18.22 bitrate=N/A    frame=  913 fps=5.2 q=24.8 size=N/A time=00:00:18.26 bitrate=N/A    frame=  916 fps=5.2 q=24.8 size=N/A time=00:00:18.32 bitrate=N/A    frame=  919 fps=5.2 q=24.8 size=N/A time=00:00:18.38 bitrate=N/A    frame=  921 fps=5.2 q=24.8 size=N/A time=00:00:18.42 bitrate=N/A    frame=  924 fps=5.2 q=24.8 size=N/A time=00:00:18.48 bitrate=N/A    frame=  926 fps=5.2 q=24.8 size=N/A time=00:00:18.52 bitrate=N/A    frame=  929 fps=5.2 q=24.8 size=N/A time=00:00:18.58 bitrate=N/A    frame=  932 fps=5.2 q=24.8 size=N/A time=00:00:18.64 bitrate=N/A    frame=  934 fps=5.2 q=24.8 size=N/A time=00:00:18.68 bitrate=N/A    frame=  936 fps=5.2 q=24.8 size=N/A time=00:00:18.72 bitrate=N/A    frame=  940 fps=5.2 q=24.8 size=N/A time=00:00:18.80 bitrate=N/A    frame=  942 fps=5.2 q=24.8 size=N/A time=00:00:18.84 bitrate=N/A    frame=  945 fps=5.2 q=24.8 size=N/A time=00:00:18.90 bitrate=N/A    frame=  948 fps=5.2 q=24.8 size=N/A time=00:00:18.96 bitrate=N/A    frame=  951 fps=5.2 q=24.8 size=N/A time=00:00:19.02 bitrate=N/A    frame=  953 fps=5.2 q=24.8 size=N/A time=00:00:19.06 bitrate=N/A    frame=  955 fps=5.2 q=24.8 size=N/A time=00:00:19.10 bitrate=N/A    frame=  958 fps=5.2 q=24.8 size=N/A time=00:00:19.16 bitrate=N/A    frame=  961 fps=5.2 q=24.8 size=N/A time=00:00:19.22 bitrate=N/A    frame=  963 fps=5.1 q=24.8 size=N/A time=00:00:19.26 bitrate=N/A    frame=  965 fps=5.1 q=24.8 size=N/A time=00:00:19.30 bitrate=N/A    frame=  967 fps=5.1 q=24.8 size=N/A time=00:00:19.34 bitrate=N/A    frame=  970 fps=5.1 q=24.8 size=N/A time=00:00:19.40 bitrate=N/A    frame=  973 fps=5.1 q=24.8 size=N/A time=00:00:19.46 bitrate=N/A    frame=  975 fps=5.1 q=24.8 size=N/A time=00:00:19.50 bitrate=N/A    frame=  978 fps=5.1 q=24.8 size=N/A time=00:00:19.56 bitrate=N/A    frame=  981 fps=5.1 q=24.8 size=N/A time=00:00:19.62 bitrate=N/A    frame=  984 fps=5.1 q=24.8 size=N/A time=00:00:19.68 bitrate=N/A    frame=  986 fps=5.1 q=24.8 size=N/A time=00:00:19.72 bitrate=N/A    frame=  989 fps=5.1 q=24.8 size=N/A time=00:00:19.78 bitrate=N/A    frame=  992 fps=5.1 q=24.8 size=N/A time=00:00:19.84 bitrate=N/A    frame=  994 fps=5.1 q=24.8 size=N/A time=00:00:19.88 bitrate=N/A    frame=  996 fps=5.1 q=24.8 size=N/A time=00:00:19.92 bitrate=N/A    frame=  998 fps=5.1 q=24.8 size=N/A time=00:00:19.96 bitrate=N/A    frame= 1001 fps=5.1 q=24.8 size=N/A time=00:00:20.02 bitrate=N/A    frame= 1003 fps=5.1 q=24.8 size=N/A time=00:00:20.06 bitrate=N/A    frame= 1005 fps=5.1 q=24.8 size=N/A time=00:00:20.10 bitrate=N/A    frame= 1008 fps=5.1 q=24.8 size=N/A time=00:00:20.16 bitrate=N/A    frame= 1011 fps=5.1 q=24.8 size=N/A time=00:00:20.22 bitrate=N/A    frame= 1014 fps=5.1 q=24.8 size=N/A time=00:00:20.28 bitrate=N/A    frame= 1016 fps=5.1 q=24.8 size=N/A time=00:00:20.32 bitrate=N/A    frame= 1018 fps=5.1 q=24.8 size=N/A time=00:00:20.36 bitrate=N/A    frame= 1021 fps=5.1 q=24.8 size=N/A time=00:00:20.42 bitrate=N/A    frame= 1023 fps=5.1 q=24.8 size=N/A time=00:00:20.46 bitrate=N/A    frame= 1025 fps=5.1 q=24.8 size=N/A time=00:00:20.50 bitrate=N/A    frame= 1028 fps=5.1 q=24.8 size=N/A time=00:00:20.56 bitrate=N/A    frame= 1030 fps=5.1 q=24.8 size=N/A time=00:00:20.60 bitrate=N/A    frame= 1032 fps=5.1 q=24.8 size=N/A time=00:00:20.64 bitrate=N/A    frame= 1034 fps=5.1 q=24.8 size=N/A time=00:00:20.68 bitrate=N/A    frame= 1037 fps=5.1 q=24.8 size=N/A time=00:00:20.74 bitrate=N/A    frame= 1041 fps=5.1 q=24.8 size=N/A time=00:00:20.82 bitrate=N/A    frame= 1044 fps=5.1 q=24.8 size=N/A time=00:00:20.88 bitrate=N/A    frame= 1046 fps=5.1 q=24.8 size=N/A time=00:00:20.92 bitrate=N/A    frame= 1048 fps=5.0 q=24.8 size=N/A time=00:00:20.96 bitrate=N/A    frame= 1052 fps=5.0 q=24.8 size=N/A time=00:00:21.04 bitrate=N/A    frame= 1055 fps=5.0 q=24.8 size=N/A time=00:00:21.10 bitrate=N/A    frame= 1058 fps=5.0 q=24.8 size=N/A time=00:00:21.16 bitrate=N/A    frame= 1061 fps=5.0 q=24.8 size=N/A time=00:00:21.22 bitrate=N/A    frame= 1064 fps=5.0 q=24.8 size=N/A time=00:00:21.28 bitrate=N/A    frame= 1066 fps=5.0 q=24.8 size=N/A time=00:00:21.32 bitrate=N/A    frame= 1069 fps=5.0 q=24.8 size=N/A time=00:00:21.38 bitrate=N/A    frame= 1071 fps=5.0 q=24.8 size=N/A time=00:00:21.42 bitrate=N/A    frame= 1074 fps=5.0 q=24.8 size=N/A time=00:00:21.48 bitrate=N/A    frame= 1076 fps=5.0 q=24.8 size=N/A time=00:00:21.52 bitrate=N/A    frame= 1078 fps=5.0 q=24.8 size=N/A time=00:00:21.56 bitrate=N/A    frame= 1080 fps=5.0 q=24.8 size=N/A time=00:00:21.60 bitrate=N/A    frame= 1082 fps=5.0 q=24.8 size=N/A time=00:00:21.64 bitrate=N/A    frame= 1085 fps=5.0 q=24.8 size=N/A time=00:00:21.70 bitrate=N/A    frame= 1087 fps=5.0 q=24.8 size=N/A time=00:00:21.74 bitrate=N/A    frame= 1090 fps=5.0 q=24.8 size=N/A time=00:00:21.80 bitrate=N/A    frame= 1092 fps=5.0 q=24.8 size=N/A time=00:00:21.84 bitrate=N/A    frame= 1094 fps=5.0 q=24.8 size=N/A time=00:00:21.88 bitrate=N/A    frame= 1096 fps=5.0 q=24.8 size=N/A time=00:00:21.92 bitrate=N/A    frame= 1099 fps=5.0 q=24.8 size=N/A time=00:00:21.98 bitrate=N/A    frame= 1101 fps=5.0 q=24.8 size=N/A time=00:00:22.02 bitrate=N/A    frame= 1103 fps=5.0 q=24.8 size=N/A time=00:00:22.06 bitrate=N/A    frame= 1105 fps=5.0 q=24.8 size=N/A time=00:00:22.10 bitrate=N/A    frame= 1108 fps=5.0 q=24.8 size=N/A time=00:00:22.16 bitrate=N/A    frame= 1110 fps=5.0 q=24.8 size=N/A time=00:00:22.20 bitrate=N/A    frame= 1112 fps=5.0 q=24.8 size=N/A time=00:00:22.24 bitrate=N/A    frame= 1115 fps=5.0 q=24.8 size=N/A time=00:00:22.30 bitrate=N/A    frame= 1118 fps=5.0 q=24.8 size=N/A time=00:00:22.36 bitrate=N/A    frame= 1120 fps=5.0 q=24.8 size=N/A time=00:00:22.40 bitrate=N/A    frame= 1122 fps=5.0 q=24.8 size=N/A time=00:00:22.44 bitrate=N/A    frame= 1125 fps=5.0 q=24.8 size=N/A time=00:00:22.50 bitrate=N/A    frame= 1127 fps=5.0 q=24.8 size=N/A time=00:00:22.54 bitrate=N/A    frame= 1129 fps=5.0 q=24.8 size=N/A time=00:00:22.58 bitrate=N/A    frame= 1131 fps=5.0 q=24.8 size=N/A time=00:00:22.62 bitrate=N/A    frame= 1133 fps=5.0 q=24.8 size=N/A time=00:00:22.66 bitrate=N/A    frame= 1136 fps=5.0 q=24.8 size=N/A time=00:00:22.72 bitrate=N/A    frame= 1138 fps=5.0 q=24.8 size=N/A time=00:00:22.76 bitrate=N/A    frame= 1141 fps=5.0 q=24.8 size=N/A time=00:00:22.82 bitrate=N/A    frame= 1144 fps=5.0 q=24.8 size=N/A time=00:00:22.88 bitrate=N/A    frame= 1147 fps=5.0 q=24.8 size=N/A time=00:00:22.94 bitrate=N/A    frame= 1149 fps=4.9 q=24.8 size=N/A time=00:00:22.98 bitrate=N/A    frame= 1151 fps=4.9 q=24.8 size=N/A time=00:00:23.02 bitrate=N/A    frame= 1153 fps=4.9 q=24.8 size=N/A time=00:00:23.06 bitrate=N/A    frame= 1155 fps=4.9 q=24.8 size=N/A time=00:00:23.10 bitrate=N/A    frame= 1158 fps=4.9 q=24.8 size=N/A time=00:00:23.16 bitrate=N/A    frame= 1160 fps=4.9 q=24.8 size=N/A time=00:00:23.20 bitrate=N/A    frame= 1163 fps=4.9 q=24.8 size=N/A time=00:00:23.26 bitrate=N/A    frame= 1166 fps=4.9 q=24.8 size=N/A time=00:00:23.32 bitrate=N/A    frame= 1169 fps=4.9 q=24.8 size=N/A time=00:00:23.38 bitrate=N/A    frame= 1172 fps=4.9 q=24.8 size=N/A time=00:00:23.44 bitrate=N/A    frame= 1175 fps=4.9 q=24.8 size=N/A time=00:00:23.50 bitrate=N/A    frame= 1178 fps=4.9 q=24.8 size=N/A time=00:00:23.56 bitrate=N/A    frame= 1181 fps=4.9 q=24.8 size=N/A time=00:00:23.62 bitrate=N/A    frame= 1183 fps=4.9 q=24.8 size=N/A time=00:00:23.66 bitrate=N/A    frame= 1186 fps=4.9 q=24.8 size=N/A time=00:00:23.72 bitrate=N/A    frame= 1189 fps=4.9 q=24.8 size=N/A time=00:00:23.78 bitrate=N/A    frame= 1191 fps=4.9 q=24.8 size=N/A time=00:00:23.82 bitrate=N/A    frame= 1193 fps=4.9 q=24.8 size=N/A time=00:00:23.86 bitrate=N/A    frame= 1196 fps=4.9 q=24.8 size=N/A time=00:00:23.92 bitrate=N/A    frame= 1198 fps=4.9 q=24.8 size=N/A time=00:00:23.96 bitrate=N/A    frame= 1201 fps=4.9 q=24.8 size=N/A time=00:00:24.02 bitrate=N/A    frame= 1204 fps=4.9 q=24.8 size=N/A time=00:00:24.08 bitrate=N/A    frame= 1208 fps=4.9 q=24.8 size=N/A time=00:00:24.16 bitrate=N/A    frame= 1211 fps=4.9 q=24.8 size=N/A time=00:00:24.22 bitrate=N/A    frame= 1214 fps=4.9 q=24.8 size=N/A time=00:00:24.28 bitrate=N/A    frame= 1217 fps=4.9 q=24.8 size=N/A time=00:00:24.34 bitrate=N/A    frame= 1220 fps=4.9 q=24.8 size=N/A time=00:00:24.40 bitrate=N/A    frame= 1223 fps=4.9 q=24.8 size=N/A time=00:00:24.46 bitrate=N/A    frame= 1225 fps=4.9 q=24.8 size=N/A time=00:00:24.50 bitrate=N/A    frame= 1228 fps=4.9 q=24.8 size=N/A time=00:00:24.56 bitrate=N/A    frame= 1230 fps=4.9 q=24.8 size=N/A time=00:00:24.60 bitrate=N/A    frame= 1233 fps=4.9 q=24.8 size=N/A time=00:00:24.66 bitrate=N/A    frame= 1236 fps=4.9 q=24.8 size=N/A time=00:00:24.72 bitrate=N/A    frame= 1238 fps=4.9 q=24.8 size=N/A time=00:00:24.76 bitrate=N/A    frame= 1240 fps=4.9 q=24.8 size=N/A time=00:00:24.80 bitrate=N/A    frame= 1243 fps=4.9 q=24.8 size=N/A time=00:00:24.86 bitrate=N/A    frame= 1246 fps=4.9 q=24.8 size=N/A time=00:00:24.92 bitrate=N/A    frame= 1249 fps=4.9 q=24.8 size=N/A time=00:00:24.98 bitrate=N/A    frame= 1252 fps=4.9 q=24.8 size=N/A time=00:00:25.04 bitrate=N/A    frame= 1255 fps=4.9 q=24.8 size=N/A time=00:00:25.10 bitrate=N/A    frame= 1259 fps=4.9 q=24.8 size=N/A time=00:00:25.18 bitrate=N/A    frame= 1263 fps=4.9 q=24.8 size=N/A time=00:00:25.26 bitrate=N/A    frame= 1266 fps=4.9 q=24.8 size=N/A time=00:00:25.32 bitrate=N/A    frame= 1269 fps=4.9 q=24.8 size=N/A time=00:00:25.38 bitrate=N/A    frame= 1272 fps=4.9 q=24.8 size=N/A time=00:00:25.44 bitrate=N/A    frame= 1275 fps=4.9 q=24.8 size=N/A time=00:00:25.50 bitrate=N/A    frame= 1278 fps=4.9 q=24.8 size=N/A time=00:00:25.56 bitrate=N/A    frame= 1279 fps=4.9 q=24.8 size=N/A time=00:00:25.58 bitrate=N/A    frame= 1279 fps=4.9 q=24.8 Lsize=N/A time=00:00:25.58 bitrate=N/A    
video:1185747kB audio:0kB subtitle:0kB other streams:0kB global headers:0kB muxing overhead: unknown
+ turkic load DJI_0063_30m_regi_disznoturas_homokmegy_20180603_napos_kalaszos_T4 /home/horvathandras/vatic/vatic/videos/DJI_0063_30m_regi_disznoturas_homokmegy_20180603_napos_kalaszos_T4 $'Pozit\303\255vROI' $'Negat\303\255vROI' $'T\303\272r\303\241s' '~Friss' '~1-2Hetes' '~Régebbi' '~Egyéb1' '~Egyéb2' '~Egyéb3' $'R\303\241g\303\241s' '~Friss' '~1-2Hetes' '~Régebbi' '~Egyéb1' '~Egyéb2' '~Egyéb3' $'T\303\266r\303\251s' '~Friss' '~1-2Hetes' '~Régebbi' '~Egyéb1' '~Egyéb2' '~Egyéb3' $'Tapos\303\241s' '~Friss' '~1-2Hetes' '~Régebbi' '~Egyéb1' '~Egyéb2' '~Egyéb3' $'Eg\303\251szs\303\251gesN\303\266v\303\251ny' $'Egy\303\251b1' $'Egy\303\251b2' $'Egy\303\251b3' $'Egy\303\251b4' $'Egy\303\251b5' Bizonytalan $'M\305\261vel\305\221\303\272t' $'Gktapos\303\241s' $'Vet\305\221hiba' $'Sz\303\251ld\303\266nt\303\251s' $'J\303\251gk\303\241r' $'Belv\303\255z' $'Asz\303\241ly' $'Er\303\263zi\303\263' $'Egyszik\305\261Gyom' $'K\303\251tszik\305\261Gyom' $'Egy\303\251bN\303\266vv\303\251delmiPR' --offline --title '$filenameNoDot Video' --length 1000 --description 'vatic annotation'
+ turkic publish --offline
+ mkdir /home/horvathandras/vatic/vatic/public/videothumbnails/DJI_0063_30m_regi_disznoturas_homokmegy_20180603_napos_kalaszos_T4
+ cp /home/horvathandras/vatic/vatic/videos/DJI_0063_30m_regi_disznoturas_homokmegy_20180603_napos_kalaszos_T4/0/0/31.jpg /home/horvathandras/vatic/vatic/public/videothumbnails/DJI_0063_30m_regi_disznoturas_homokmegy_20180603_napos_kalaszos_T4/thumb.jpg
